<svg xmlns="http://www.w3.org/2000/svg" xmlns:xlink="http://www.w3.org/1999/xlink" width="0" height="0"><symbol id="icon-radar" fill-rule="evenodd" clip-rule="evenodd" viewBox="0 0 24 24"><path d="M12 0c6.623 0 12 5.377 12 12s-5.377 12-12 12-12-5.377-12-12 5.377-12 12-12zm0 2c5.52 0 10 4.481 10 10 0 5.52-4.48 10-10 10-5.519 0-10-4.48-10-10 0-5.519 4.481-10 10-10zm-2 2.252v1.038c-2.89.862-5 3.542-5 6.71 0 3.863 3.137 7 7 7 1.932 0 3.682-.784 4.949-2.051l.706.706c-1.448 1.449-3.448 2.345-5.655 2.345-4.416 0-8-3.585-8-8 0-3.725 2.551-6.859 6-7.748zm0 3.165v1.119c-1.195.692-2 1.984-2 3.464 0 2.208 1.792 4 4 4 1.104 0 2.104-.448 2.828-1.172l.707.707c-.905.904-2.155 1.465-3.535 1.465-2.76 0-5-2.24-5-5 0-2.049 1.235-3.811 3-4.583zm1 2.851v-6.268c0-.265.105-.52.293-.707.187-.188.442-.293.707-.293.265 0 .52.105.707.293.188.187.293.442.293.707v6.268c.598.346 1 .992 1 1.732 0 1.104-.896 2-2 2s-2-.896-2-2c0-.74.402-1.386 1-1.732z"/></symbol><symbol id="icon-win" viewBox="0 0 24 24"><path d="M0 12v-8.646l10-1.355v10.001h-10zm11 0h13v-12l-13 1.807v10.193zm-1 1h-10v7.646l10 1.355v-9.001zm1 0v9.194l13 1.806v-11h-13z"/></symbol><symbol id="icon-linux" viewBox="0 0 24 24"><path d="M20.581 19.049c-.55-.446-.336-1.431-.907-1.917.553-3.365-.997-6.331-2.845-8.232-1.551-1.595-1.051-3.147-1.051-4.49 0-2.146-.881-4.41-3.55-4.41-2.853 0-3.635 2.38-3.663 3.738-.068 3.262.659 4.11-1.25 6.484-2.246 2.793-2.577 5.579-2.07 7.057-.237.276-.557.582-1.155.835-1.652.72-.441 1.925-.898 2.78-.13.243-.192.497-.192.74 0 .75.596 1.399 1.679 1.302 1.461-.13 2.809.905 3.681.905.77 0 1.402-.438 1.696-1.041 1.377-.339 3.077-.296 4.453.059.247.691.917 1.141 1.662 1.141 1.631 0 1.945-1.849 3.816-2.475.674-.225 1.013-.879 1.013-1.488 0-.39-.139-.761-.419-.988zm-9.147-10.465c-.319 0-.583-.258-1-.568-.528-.392-1.065-.618-1.059-1.03 0-.283.379-.37.869-.681.526-.333.731-.671 1.249-.671.53 0 .69.268 1.41.579.708.307 1.201.427 1.201.773 0 .355-.741.609-1.158.868-.613.378-.928.73-1.512.73zm1.665-5.215c.882.141.981 1.691.559 2.454l-.355-.145c.184-.543.181-1.437-.435-1.494-.391-.036-.643.48-.697.922-.153-.064-.32-.11-.523-.127.062-.923.658-1.737 1.451-1.61zm-3.403.331c.676-.168 1.075.618 1.078 1.435l-.31.19c-.042-.343-.195-.897-.579-.779-.411.128-.344 1.083-.115 1.279l-.306.17c-.42-.707-.419-2.133.232-2.295zm-2.115 19.243c-1.963-.893-2.63-.69-3.005-.69-.777 0-1.031-.579-.739-1.127.248-.465.171-.952.11-1.343-.094-.599-.111-.794.478-1.052.815-.346 1.177-.791 1.447-1.124.758-.937 1.523.537 2.15 1.85.407.851 1.208 1.282 1.455 2.225.227.871-.71 1.801-1.896 1.261zm6.987-1.874c-1.384.673-3.147.982-4.466.299-.195-.563-.507-.927-.843-1.293.539-.142.939-.814.46-1.489-.511-.721-1.555-1.224-2.61-2.04-.987-.763-1.299-2.644.045-4.746-.655 1.862-.272 3.578.057 4.069.068-.988.146-2.638 1.496-4.615.681-.998.691-2.316.706-3.14l.62.424c.456.337.838.708 1.386.708.81 0 1.258-.466 1.882-.853.244-.15.613-.302.923-.513.52 2.476 2.674 5.454 2.795 7.15.501-1.032-.142-3.514-.142-3.514.842 1.285.909 2.356.946 3.67.589.241 1.221.869 1.279 1.696l-.245-.028c-.126-.919-2.607-2.269-2.83-.539-1.19.181-.757 2.066-.997 3.288-.11.559-.314 1.001-.462 1.466zm4.846-.041c-.985.38-1.65 1.187-2.107 1.688-.88.966-2.044.503-2.168-.401-.131-.966.36-1.493.572-2.574.193-.987-.023-2.506.431-2.668.295 1.753 2.066 1.016 2.47.538.657 0 .712.222.859.837.092.385.219.709.578 1.09.418.447.29 1.133-.635 1.49zm-8-13.006c-.651 0-1.138-.433-1.534-.769-.203-.171.05-.487.253-.315.387.328.777.675 1.281.675.607 0 1.142-.519 1.867-.805.247-.097.388.285.143.382-.704.277-1.269.832-2.01.832z"/></symbol><symbol id="icon-apple" viewBox="0 0 24 24"><path d="M22 17.607c-.786 2.28-3.139 6.317-5.563 6.361-1.608.031-2.125-.953-3.963-.953-1.837 0-2.412.923-3.932.983-2.572.099-6.542-5.827-6.542-10.995 0-4.747 3.308-7.1 6.198-7.143 1.55-.028 3.014 1.045 3.959 1.045.949 0 2.727-1.29 4.596-1.101.782.033 2.979.315 4.389 2.377-3.741 2.442-3.158 7.549.858 9.426zm-5.222-17.607c-2.826.114-5.132 3.079-4.81 5.531 2.612.203 5.118-2.725 4.81-5.531z"/></symbol><symbol id="icon-save" viewBox="0 0 24 24"><path d="M14 10h5l-7 8-7-8h5v-10h4v10zm4.213-8.246l-1.213 1.599c2.984 1.732 5 4.955 5 8.647 0 5.514-4.486 10-10 10s-10-4.486-10-10c0-3.692 2.016-6.915 5-8.647l-1.213-1.599c-3.465 2.103-5.787 5.897-5.787 10.246 0 6.627 5.373 12 12 12s12-5.373 12-12c0-4.349-2.322-8.143-5.787-10.246z"/></symbol><symbol id="icon-link" viewBox="0 0 24 24"><path d="M21 13v10h-21v-19h12v2h-10v15h17v-8h2zm3-12h-10.988l4.035 4-6.977 7.07 2.828 2.828 6.977-7.07 4.125 4.172v-11z"/></symbol><symbol id="icon-gear" viewBox="0 0 24 24"><path d="M24 13.616v-3.232l-2.869-1.02c-.198-.687-.472-1.342-.811-1.955l1.308-2.751-2.285-2.285-2.751 1.307c-.613-.339-1.269-.613-1.955-.811l-1.021-2.869h-3.232l-1.021 2.869c-.686.198-1.342.471-1.955.811l-2.751-1.308-2.285 2.285 1.308 2.752c-.339.613-.614 1.268-.811 1.955l-2.869 1.02v3.232l2.869 1.02c.197.687.472 1.342.811 1.955l-1.308 2.751 2.285 2.286 2.751-1.308c.613.339 1.269.613 1.955.811l1.021 2.869h3.232l1.021-2.869c.687-.198 1.342-.472 1.955-.811l2.751 1.308 2.285-2.286-1.308-2.751c.339-.613.613-1.268.811-1.955l2.869-1.02zm-12 2.384c-2.209 0-4-1.791-4-4s1.791-4 4-4 4 1.791 4 4-1.791 4-4 4z"/></symbol></svg>